<svg id="Capa_3" data-name="Capa 3" xmlns="http://www.w3.org/2000/svg" viewBox="0 0 413.65 82.29"><defs><style>.cls-1{fill:#791079;fill-rule:evenodd;}.cls-2{fill:#fff;}.cls-3{fill:#e07be0;}</style></defs><path class="cls-1" d="M815.4,512.33V445h28.23a33.65,33.65,0,1,1,0,67.29Zm16.06-16.06h12.17a17.59,17.59,0,1,0,0-35.17H831.46Z" transform="translate(-815.4 -437.12)"/><path class="cls-1" d="M914.5,445a33.65,33.65,0,1,1-33.65,33.64A33.66,33.66,0,0,1,914.5,445Zm0,16.06a17.59,17.59,0,1,1-17.59,17.58A17.59,17.59,0,0,1,914.5,461.1Z" transform="translate(-815.4 -437.12)"/><path class="cls-1" d="M997.75,461H985.19a17.68,17.68,0,0,0,0,35.35h23.74l.12,16.06H985.19a33.74,33.74,0,0,1,0-67.47h19.45L997.75,461Z" transform="translate(-815.4 -437.12)"/><path class="cls-1" d="M1039.35,445h16.34l0,16h-16.34l0,28.21a7.23,7.23,0,0,0,7.22,7.23c5.09,0,9.65,0,9.65,0l-.1,15.84h-17.78c-8.22,0-15.77-6.66-15.77-14.87l0-36.45h-17.65l6.87-16h10.82v-7.92h16.78V445Z" transform="translate(-815.4 -437.12)"/><g id="dot"><circle class="cls-2" cx="1015.52" cy="504.39" r="15.02" transform="translate(-401.88 1028.14) rotate(-84.35)"/><circle class="cls-3" cx="200.12" cy="67.27" r="9.69"/></g><path class="cls-1" d="M1092.09,445a33.65,33.65,0,1,1-33.65,33.64A33.67,33.67,0,0,1,1092.09,445Zm0,16.06a17.59,17.59,0,1,1-17.59,17.58A17.59,17.59,0,0,1,1092.09,461.1Z" transform="translate(-815.4 -437.12)"/><path class="cls-1" d="M1149.19,447.58a8.68,8.68,0,0,1,6.14-2.54h23c-8.3,3.29-11.33,9.45-12.6,17.95h-7.35a11.32,11.32,0,0,0-11.33,11.32v38H1129.2V445h16.11v6.42Z" transform="translate(-815.4 -437.12)"/><path class="cls-1" d="M1225.6,446H1193a20.52,20.52,0,0,0-20.51,20.52h0c0,11.19,8.18,17,19.23,18.82,5.16.84,11.09,1.85,15.92,2.69,2.67.46,5.35.39,5.35,3.2h0a4.2,4.2,0,0,1-4.19,4.2h-35.17v16.06h35.17a20.26,20.26,0,0,0,20.25-20.26h0a17.52,17.52,0,0,0-4.17-12c-3.17-3.66-8.18-5.92-14.51-7-4.87-.84-10.86-1.87-16.08-2.71a17.53,17.53,0,0,1-3.9-1c-.93-.38-1.84-.82-1.84-1.94h0a4.46,4.46,0,0,1,4.45-4.46h32.6V446Z" transform="translate(-815.4 -437.12)"/></svg>