<svg xmlns="http://www.w3.org/2000/svg" viewBox="0 0 1366.34 347.17"><g id="a7021532-5063-47bb-b808-be5a07fa291d" data-name="Logo"><path d="M545.79,461.67l.12-161.47,67.73.05a80.72,80.72,0,1,1-.12,161.43Zm38.56-38.5,29.2,0a42.19,42.19,0,1,0,.06-84.37h0l-29.2,0Z" transform="translate(-171.78 -222.95)" fill="#791079" fill-rule="evenodd"/><path d="M783.63,300.38A80.71,80.71,0,1,1,702.86,381h0A80.74,80.74,0,0,1,783.63,300.38Zm0,38.53a42.19,42.19,0,1,1-42.22,42.15A42.18,42.18,0,0,1,783.6,338.91Z" transform="translate(-171.78 -222.95)" fill="#791079" fill-rule="evenodd"/><path d="M983.32,338.84l-30.13,0a42.4,42.4,0,1,0-.07,84.8h0l57,0,.27,38.53-57.24-.05a80.92,80.92,0,0,1,.11-161.84l46.67,0-16.56,38.51Z" transform="translate(-171.78 -222.95)" fill="#791079" fill-rule="evenodd"/><path d="M1083.13,300.6l39.2,0-.12,38.31-39.21,0,0,67.68a17.34,17.34,0,0,0,17.31,17.35c12.2,0,23.14.12,23.14.12l-.26,38-42.64,0c-19.71,0-37.81-16-37.79-35.68l0-87.43-42.35,0,16.51-38.3,26,0v-19l40.24,0v19Z" transform="translate(-171.78 -222.95)" fill="#791079" fill-rule="evenodd"/><g id="a9f03047-5696-47f5-a3e4-b51f2ac7a90b" data-name="dot"><circle cx="1025.81" cy="442.89" r="36.04" transform="translate(311.59 1196.76) rotate(-84.31)" fill="#fff"/><circle cx="1025.87" cy="442.93" r="23.23" transform="translate(-263.18 202.53) rotate(-22.46)" fill="#e07be0"/></g><path d="M1209.65,300.69a80.72,80.72,0,1,1-80.77,80.65h0A80.75,80.75,0,0,1,1209.65,300.69Zm0,38.53a42.19,42.19,0,1,1-42.23,42.15A42.19,42.19,0,0,1,1209.63,339.22Z" transform="translate(-171.78 -222.95)" fill="#791079" fill-rule="evenodd"/><path d="M1346.62,306.9a20.81,20.81,0,0,1,14.73-6.1l55.28,0c-19.91,7.9-27.21,22.67-30.25,43h-17.65A27.16,27.16,0,0,0,1341.54,371v0l-.06,91.2-42.94,0,.12-161.46,38.66,0V316.2Z" transform="translate(-171.78 -222.95)" fill="#791079" fill-rule="evenodd"/><path d="M1529.91,303.21l-78.19-.06a49.22,49.22,0,0,0-49.25,49.18h0c0,26.86,19.59,40.86,46.1,45.18,12.38,2,26.6,4.47,38.18,6.48,6.42,1.12,12.84.94,12.84,7.69h0a10.06,10.06,0,0,1-10.06,10.06h0l-84.36-.06,0,38.52,84.36.07a48.61,48.61,0,0,0,48.63-48.55h0c0-12.68-3.94-21.85-10-28.83-7.6-8.77-19.62-14.21-34.81-16.85-11.7-2-26.07-4.5-38.58-6.54a42.3,42.3,0,0,1-9.36-2.5c-2.22-.92-4.41-2-4.41-4.66h0a10.7,10.7,0,0,1,10.7-10.68h0l78.21.06Z" transform="translate(-171.78 -222.95)" fill="#791079" fill-rule="evenodd"/></g><g id="aa7119bb-1846-410b-a04b-0c8597bc849d" data-name="Capa 2"><g id="a4e0f3b1-16e5-47e1-89c8-ae281149ae27" data-name="Logo"><path d="M171.78,536.83,172,223l131.69.1c86.61.06,156.88,70.43,156.82,157.05S390.08,537,303.47,536.92Zm75-74.86,56.78,0a82,82,0,1,0,.14-164h0l-56.78,0Z" transform="translate(-171.78 -222.95)" fill="#791079" fill-rule="evenodd"/><circle cx="243.48" cy="277.01" r="45.18" fill="#e07be0"/><path d="M415.3,429.81A70.16,70.16,0,1,0,485.4,500h0A70.19,70.19,0,0,0,415.3,429.81Zm0,25a45.19,45.19,0,1,1-45.21,45.16h0A45.2,45.2,0,0,1,415.29,454.78Z" transform="translate(-171.78 -222.95)" fill="#fff" fill-rule="evenodd"/></g></g></svg>